<svg width="128" height="128" viewBox="0 0 128 128" xmlns="http://www.w3.org/2000/svg">
  <circle cx="64" cy="64" r="64" fill="#45897d"/>
  <g transform="translate(26,7) scale(0.86)">
    <g fill="#14201E">
      <g transform="rotate(-26 44 68)"><rect x="42" y="42" width="4" height="26" rx="2"/><circle cx="44" cy="35.5" r="5.5"/></g>
      <g transform="rotate(26 44 68)"><rect x="42" y="42" width="4" height="26" rx="2"/><circle cx="44" cy="35.5" r="5.5"/></g>
      <rect x="42" y="34" width="4" height="34" rx="2"/>
      <circle cx="44" cy="27.5" r="5.5"/>
      <ellipse cx="44" cy="76" rx="27" ry="28"/>
    </g>
    <circle cx="36" cy="73" r="7" fill="#ffffff"/><circle cx="36" cy="73" r="3.2" fill="#0E8C82"/>
    <circle cx="52" cy="73" r="7" fill="#ffffff"/><circle cx="52" cy="73" r="3.2" fill="#0E8C82"/>
    <polygon points="37,85 51,85 44,99" fill="#E7B53C"/>
  </g>
</svg>
